<svg width="303" height="219" viewBox="0 0 303 219" fill="none" xmlns="http://www.w3.org/2000/svg">
<path d="M123.213 126.911C132.4 117 143.173 109.027 153.218 100.297C165.972 89.2126 176.298 76.313 185.147 62.1907C192.474 50.4958 199.477 38.5701 208.749 28.1146C218.793 16.788 230.206 7.26643 245.379 2.86797C262.692 -2.15104 279.19 -0.895182 294.456 9.12639C296.189 10.2644 297.702 11.557 297.816 14.036C295.472 14.4228 293.185 14.7218 290.934 15.1839C271.21 19.2329 256.316 30.3416 243.791 44.9866C233.893 56.5602 226.088 69.5057 217.419 81.8837C207.379 96.2169 196.087 109.383 181.834 120.151C171.022 128.318 159.572 135.625 148.746 143.748C139.281 150.849 130.536 158.651 124.79 169.057C117.69 181.915 117.623 195 123.311 208.299C123.762 209.353 124.599 210.309 124.347 211.619C122.83 212.307 121.777 211.352 120.79 210.623C109.109 202.005 102.647 190.76 101.427 176.498C100.164 161.737 105.533 149.18 114.071 137.483C116.776 133.776 119.674 130.209 123.213 126.911Z" fill="black"/>
<path d="M48.8343 123.199C46.2867 132.613 44.2339 141.902 43.1558 151.351C42.263 159.174 43.8538 166.496 48.9785 172.874C49.3138 173.291 49.7191 173.721 49.3588 174.495C47.9764 174.728 46.7164 174.147 45.4751 173.559C36.1375 169.137 29.1093 162.456 24.3136 153.566C18.8573 143.452 16.1983 132.626 15.1017 121.342C13.6232 106.128 15.6125 91.1959 18.5984 76.314C21.1041 63.8252 22.4047 51.2018 21.2259 38.5209C20.1383 26.8202 17.4339 15.4567 10.3926 5.49018C10.0767 5.04297 9.80393 4.56325 9.55642 4.0773C9.43767 3.84419 9.42501 3.56102 9.30518 3.04689C11.5331 1.59198 14.2071 1.93085 16.5658 2.0011C31.1822 2.43639 43.4077 7.7456 52.2611 19.2487C58.3639 27.178 60.9993 36.3707 62.2697 46.019C63.9807 59.0145 61.1816 71.6135 58.641 84.2192C56.0088 97.2794 52.2607 110.088 48.8343 123.199Z" fill="black"/>
<path d="M244.254 209.774C234.226 202.811 227.861 193.171 221.631 183.449C216.597 175.593 212.42 167.262 207.271 159.46C203.706 154.059 199.575 149.174 194.471 145.098C188.406 140.255 181.309 137.883 173.491 137.376C172.684 137.324 171.795 137.583 171.12 136.975C170.926 136.525 171.134 136.2 171.427 135.98C179.724 129.745 187.965 123.436 196.355 117.318C204.048 111.709 211.936 112.669 219.785 117.165C227.718 121.708 233.598 128.266 238.962 135.312C245.587 144.016 250.872 153.534 256.766 162.682C263.017 172.385 269.6 181.853 277.925 190.074C284.199 196.271 291.512 200.89 300.029 203.732C303.807 204.993 303.848 205.507 300.912 208.039C286.045 220.863 261.249 222.617 244.254 209.774Z" fill="black"/>
<path d="M100.343 67.606C100.25 54.842 100.118 42.3498 100.078 29.8574C100.05 21.0859 100.675 12.3143 100.111 3.54269C99.9693 1.34014 101.277 1.08559 103.141 1.10017C120.359 1.23491 136.686 13.78 140.867 29.8834C142.82 37.4066 143.84 44.9848 143.677 52.7196C143.451 63.487 144.155 74.2738 143.181 85.022C142.235 95.4561 137.125 103.929 129.223 110.907C119.495 119.499 110.225 128.451 103.389 139.466C102.746 140.503 102.219 141.751 100.258 142.485C99.6436 117.435 100.49 92.6531 100.343 67.606Z" fill="black"/>
<path d="M99.1032 214.111C78.7778 220.059 58.5785 220.956 38.3874 214.712C17.778 208.338 5.78305 194.592 1.54566 174.268C-1.24998 160.86 0.0932404 147.641 2.82282 134.411C4.23252 127.578 5.52441 120.729 7.76676 114.088C7.9392 113.577 7.97831 113.012 9.03118 112.552C9.24676 115.652 9.54823 118.61 9.64175 121.573C10.0215 133.609 12.7447 145.06 18.7491 155.689C25.3438 167.362 34.7891 175.904 48.1322 180.02C53.8323 181.778 59.7673 181.978 65.6864 182C74.2104 182.031 82.5171 180.621 90.5807 177.994C92.6689 177.313 93.2702 178.113 93.5558 179.887C94.8538 187.95 97.7665 195.433 102.293 202.345C103.754 204.576 105.372 206.676 107.187 208.639C108.615 210.182 108.236 211.156 106.254 211.77C103.929 212.49 101.625 213.276 99.1032 214.111Z" fill="black"/>
<path d="M145.917 154.738C147.383 154.007 148.178 152.586 149.677 152.314C150.202 152.907 149.884 153.314 149.609 153.643C145.077 159.073 143.686 165.446 143.653 172.198C143.584 186.227 143.581 200.256 143.522 214.286C143.505 218.062 143.027 218.348 139.243 217.634C132.81 216.42 128.743 212.542 126.454 206.894C121.27 194.101 123.343 182.003 130.874 170.667C134.89 164.622 139.705 159.173 145.917 154.738Z" fill="black"/>
</svg>
